<svg width="113" height="113" viewBox="0 0 113 113" fill="none" xmlns="http://www.w3.org/2000/svg">
<path d="M0 90C0 73.4315 13.4315 60 30 60H77.5C91.031 60 102 70.969 102 84.5V84.5C102 98.031 91.031 109 77.5 109H4C1.79086 109 0 107.209 0 105V90Z" fill="#CDDAE0"/>
<circle cx="83" cy="83" r="30" fill="#263F49"/>
<circle cx="82.5" cy="82.5" r="14.5" fill="#CDDAE0"/>
<circle cx="82.5" cy="82.5" r="7.5" fill="#263F49"/>
<rect x="79" y="63" width="7" height="8" rx="2" fill="#CDDAE0"/>
<rect x="79" y="94" width="7" height="8" rx="2" fill="#CDDAE0"/>
<rect x="94" y="86" width="7" height="8" rx="2" transform="rotate(-90 94 86)" fill="#CDDAE0"/>
<rect x="63" y="86" width="7" height="8" rx="2" transform="rotate(-90 63 86)" fill="#CDDAE0"/>
<rect x="93.8137" y="66.2363" width="7" height="8" rx="2" transform="rotate(45 93.8137 66.2363)" fill="#CDDAE0"/>
<rect x="71.8933" y="88.1567" width="7" height="8" rx="2" transform="rotate(45 71.8933 88.1567)" fill="#CDDAE0"/>
<rect x="88.1567" y="93.1064" width="7" height="8" rx="2" transform="rotate(-45 88.1567 93.1064)" fill="#CDDAE0"/>
<rect x="66.2366" y="71.1865" width="7" height="8" rx="2" transform="rotate(-45 66.2366 71.1865)" fill="#CDDAE0"/>
<rect x="26" width="50" height="50" rx="25" fill="#CDDAE0"/>
</svg>
