<svg width="113" height="110" viewBox="0 0 113 110" fill="none" xmlns="http://www.w3.org/2000/svg">
<mask id="path-1-inside-1_50_5094" fill="white">
<path d="M10 12.9995C10 5.81981 15.8203 -0.000488281 23 -0.000488281H90C97.1797 -0.000488281 103 5.81981 103 12.9995V74.9995C103 76.1041 102.105 76.9995 101 76.9995H12C10.8954 76.9995 10 76.1041 10 74.9995V12.9995Z"/>
</mask>
<path d="M10 12.9995C10 5.81981 15.8203 -0.000488281 23 -0.000488281H90C97.1797 -0.000488281 103 5.81981 103 12.9995V74.9995C103 76.1041 102.105 76.9995 101 76.9995H12C10.8954 76.9995 10 76.1041 10 74.9995V12.9995Z" fill="#7C8F97" stroke="#7C8F97" stroke-width="14" mask="url(#path-1-inside-1_50_5094)"/>
<mask id="path-2-inside-2_50_5094" fill="white">
<path d="M13 109.984C5.8203 109.984 -2.54413e-07 104.164 -5.68248e-07 96.9844L-9.17939e-07 88.9844C-1.0145e-06 86.7752 1.79086 84.9844 4 84.9844L109 84.9844C111.209 84.9844 113 86.7752 113 88.9844L113 96.9844C113 104.164 107.18 109.984 100 109.984L13 109.984Z"/>
</mask>
<path d="M13 109.984C5.8203 109.984 -2.54413e-07 104.164 -5.68248e-07 96.9844L-9.17939e-07 88.9844C-1.0145e-06 86.7752 1.79086 84.9844 4 84.9844L109 84.9844C111.209 84.9844 113 86.7752 113 88.9844L113 96.9844C113 104.164 107.18 109.984 100 109.984L13 109.984Z" fill="#7C8F97" stroke="#7C8F97" stroke-width="14" mask="url(#path-2-inside-2_50_5094)"/>
<rect x="19.5" y="10.5" width="74" height="56" rx="5.5" fill="#7C8F97" stroke="#263F49" stroke-width="5"/>
<mask id="path-4-inside-3_50_5094" fill="white">
<path d="M61 22C61 20.8954 61.8954 20 63 20H74C81.1797 20 87 25.8203 87 33V43C87 50.1797 81.1797 56 74 56H63C61.8954 56 61 55.1046 61 54V22Z"/>
</mask>
<path d="M61 22C61 20.8954 61.8954 20 63 20H74C81.1797 20 87 25.8203 87 33V43C87 50.1797 81.1797 56 74 56H63C61.8954 56 61 55.1046 61 54V22Z" fill="#7C8F97" stroke="#263F49" stroke-width="12" mask="url(#path-4-inside-3_50_5094)"/>
<path d="M27 53.5684L40.6765 22.4164" stroke="#263F49" stroke-width="6" stroke-linecap="round"/>
<path d="M54.353 53.5684L40.6766 22.4164" stroke="#263F49" stroke-width="6" stroke-linecap="round"/>
<path d="M48.2749 43.6567H33.0788" stroke="#263F49" stroke-width="6" stroke-linecap="round"/>
</svg>
