<svg width="114" height="116" viewBox="0 0 114 116" fill="none" xmlns="http://www.w3.org/2000/svg">
<path d="M67.2428 110.5C66.234 111.722 64.7079 112.5 63 112.5L53 112.5C51.2921 112.5 49.766 111.722 48.7572 110.5L67.2428 110.5Z" fill="#7C8F97" stroke="#7C8F97" stroke-width="4.5"/>
<path d="M53.4648 30.0742H61.6308C76.2664 30.0742 88.1308 41.9387 88.1308 56.5742V89.5571H26.9648V56.5742C26.9648 41.9387 38.8293 30.0742 53.4648 30.0742Z" fill="#7C8F97" stroke="#7C8F97" stroke-width="7"/>
<mask id="path-3-inside-1_50_5109" fill="white">
<path d="M47.0283 29.9402C47.0283 23.8981 51.9264 19 57.9685 19V19C64.0107 19 68.9088 23.8981 68.9088 29.9402V38.7239C68.9088 39.4502 68.32 40.0389 67.5938 40.0389H48.3433C47.617 40.0389 47.0283 39.4502 47.0283 38.7239V29.9402Z"/>
</mask>
<path d="M47.0283 29.9402C47.0283 23.8981 51.9264 19 57.9685 19V19C64.0107 19 68.9088 23.8981 68.9088 29.9402V38.7239C68.9088 39.4502 68.32 40.0389 67.5938 40.0389H48.3433C47.617 40.0389 47.0283 39.4502 47.0283 38.7239V29.9402Z" fill="#7C8F97" stroke="#7C8F97" stroke-width="14" mask="url(#path-3-inside-1_50_5109)"/>
<path d="M16.7324 94.0322L98.3633 94.0322C100.149 94.0322 101.596 95.4794 101.596 97.2646C101.596 99.0499 100.149 100.497 98.3633 100.497L16.7324 100.497C14.9472 100.497 13.5 99.0499 13.5 97.2646C13.5 95.4794 14.9472 94.0322 16.7324 94.0322Z" fill="#7C8F97" stroke="#7C8F97" stroke-width="6.73244"/>
<path d="M15.6317 91.0705C17.516 89.9632 23.4649 85.6542 23.4649 75.3843V91.3738C21.1647 91.1555 17.1306 90.8691 15.6317 91.0705C15.2771 91.2788 15.0665 91.3738 15.0665 91.3738C14.9837 91.2246 15.205 91.1278 15.6317 91.0705Z" fill="#7C8F97"/>
<path d="M99.464 91.0705C97.5797 89.9632 91.6308 85.6542 91.6308 75.3843V91.3738C93.931 91.1555 97.9651 90.8691 99.464 91.0705C99.8186 91.2788 100.029 91.3738 100.029 91.3738C100.112 91.2246 99.8907 91.1278 99.464 91.0705Z" fill="#7C8F97"/>
<path d="M26.9784 3.00009C2.70619 9.07118 6.04386 34.9335 6.04386 34.9335" stroke="#7C8F97" stroke-width="5" stroke-linecap="round"/>
<path d="M30.2037 14.5733C14.3145 18.5476 16.4995 35.4776 16.4995 35.4776" stroke="#7C8F97" stroke-width="5" stroke-linecap="round"/>
<path d="M86.8253 3.00009C111.098 9.07118 107.76 34.9335 107.76 34.9335" stroke="#7C8F97" stroke-width="5" stroke-linecap="round"/>
<path d="M83.6 14.5733C99.4892 18.5476 97.3042 35.4776 97.3042 35.4776" stroke="#7C8F97" stroke-width="5" stroke-linecap="round"/>
</svg>
