<svg width="113" height="113" viewBox="0 0 113 113" fill="none" xmlns="http://www.w3.org/2000/svg">
<path d="M0 93C0 87.4772 4.47715 83 10 83H23C28.5228 83 33 87.4772 33 93V109C33 111.209 31.2091 113 29 113H6C2.68629 113 0 110.314 0 107V93Z" fill="#CDDAE0"/>
<rect x="3" y="51" width="27" height="27" rx="13.5" fill="#CDDAE0"/>
<path d="M40 93C40 87.4772 44.4772 83 50 83H63C68.5228 83 73 87.4772 73 93V109C73 111.209 71.2091 113 69 113H46C42.6863 113 40 110.314 40 107V93Z" fill="#CDDAE0"/>
<rect x="43" y="51" width="27" height="27" rx="13.5" fill="#CDDAE0"/>
<path d="M80 93C80 87.4772 84.4772 83 90 83H103C108.523 83 113 87.4772 113 93V109C113 111.209 111.209 113 109 113H86C82.6863 113 80 110.314 80 107V93Z" fill="#CDDAE0"/>
<rect x="83" y="51" width="27" height="27" rx="13.5" fill="#CDDAE0"/>
<circle cx="56.5" cy="21.5" r="19" stroke="#CDDAE0" stroke-width="5"/>
<rect x="43.1182" y="7.99121" width="38.4688" height="6.09902" transform="rotate(36.0814 43.1182 7.99121)" fill="#CDDAE0"/>
</svg>
