<svg width="113" height="113" viewBox="0 0 113 113" fill="none" xmlns="http://www.w3.org/2000/svg">
<rect width="113" height="97" rx="20" fill="#CDDAE0"/>
<path d="M95.7562 96H73C75.0228 110.636 91.0364 113.402 98.7903 112.956C98.7903 112.956 104.859 112.51 100.307 110.279C100.307 110.279 86.148 102.247 95.7562 96Z" fill="#CDDAE0"/>
<path d="M75.5 38.1347C75.5 34.8912 78.1294 32.2617 81.373 32.2617V32.2617C87.8602 32.2617 93.119 37.5206 93.119 44.0077V57.5157C93.119 64.0028 87.8602 69.2617 81.373 69.2617V69.2617C78.1294 69.2617 75.5 66.6323 75.5 63.3887V38.1347Z" fill="#263F49"/>
<path d="M37.6191 63.3887C37.6191 66.6323 34.9897 69.2617 31.7461 69.2617V69.2617C25.259 69.2617 20.0001 64.0028 20.0001 57.5157L20.0001 44.0077C20.0001 37.5206 25.259 32.2617 31.7461 32.2617V32.2617C34.9897 32.2617 37.6191 34.8912 37.6191 38.1347L37.6191 63.3887Z" fill="#263F49"/>
<path d="M33.2143 34.0238H28.8096C28.8096 16.4048 47.0159 12 56.1191 12V16.8942C56.1191 16.8942 33.2143 16.8942 33.2143 34.0238Z" fill="#263F49"/>
<path d="M79.0239 34.0238H83.4287C83.4287 16.4048 65.2224 12 56.1192 12V16.8942C56.1192 16.8942 79.0239 16.8942 79.0239 34.0238Z" fill="#263F49"/>
<path d="M79.0239 66.6192H83.4287C83.4287 80.7145 65.2224 84.2383 56.1192 84.2383V80.3229C56.1192 80.3229 79.0239 80.3229 79.0239 66.6192Z" fill="#263F49"/>
<rect x="49.0713" y="78.0713" width="14.0952" height="7.92857" rx="3.96429" fill="#263F49"/>
</svg>
