<svg width="114" height="115" viewBox="0 0 114 115" fill="none" xmlns="http://www.w3.org/2000/svg">
<path d="M108 8.5V104.6C108 106.954 105.413 108.391 103.415 107.147L87.3018 97.1211C86.222 96.4493 84.8359 96.5312 83.8429 97.3257L69.8229 108.542C68.7508 109.399 67.2333 109.42 66.1385 108.591L51.1809 97.272C50.1723 96.5088 48.7934 96.4601 47.7335 97.1503L32.637 106.981C30.6414 108.28 28 106.848 28 104.467V48H8.5C6.84315 48 5.5 46.6569 5.5 45V17C5.49993 8 12.5 5.50004 16 5.5C20 5.49995 28 7 28 17V5.5H105C106.657 5.5 108 6.84315 108 8.5Z"/>
<path d="M28 48V104.467C28 106.848 30.6414 108.28 32.637 106.981L47.7335 97.1503C48.7934 96.4601 50.1723 96.5088 51.1809 97.272L66.1385 108.591C67.2333 109.42 68.7508 109.399 69.8229 108.542L83.8429 97.3257C84.8359 96.5312 86.222 96.4493 87.3018 97.1212L103.415 107.147C105.413 108.391 108 106.954 108 104.6V8.5C108 6.84315 106.657 5.5 105 5.5H28V48ZM28 48H8.5C6.84315 48 5.5 46.6569 5.5 45L5.5 17C5.49993 8 12.5 5.50004 16 5.5C20 5.49995 28 7 28 17" fill="#263F49" stroke="#CDDAE0" stroke-width="11" stroke-linecap="round"/>
<path d="M41.5 5.5H17.5" stroke="#CDDAE0" stroke-width="11" stroke-linecap="round"/>
<rect x="46" y="21" width="44" height="11" rx="5" fill="#CDDAE0"/>
<rect x="46" y="37" width="44" height="11" rx="5" fill="#CDDAE0"/>
<rect x="46" y="53" width="32" height="11" rx="5" fill="#CDDAE0"/>
</svg>
