<svg width="113" height="104" viewBox="0 0 113 104" fill="none" xmlns="http://www.w3.org/2000/svg">
<path d="M80 42C80 36.4772 84.4772 32 90 32H103C108.523 32 113 36.4772 113 42V60C113 63.3137 110.314 66 107 66H84C81.7909 66 80 64.2091 80 62V42Z" fill="#CDDAE0"/>
<path d="M0 42C0 36.4772 4.47715 32 10 32H23C28.5228 32 33 36.4772 33 42V62C33 64.2091 31.2091 66 29 66H6C2.68629 66 0 63.3137 0 60V42Z" fill="#CDDAE0"/>
<mask id="path-3-outside-1_41_740" maskUnits="userSpaceOnUse" x="13" y="44" width="87" height="60" fill="black">
<rect fill="white" x="13" y="44" width="87" height="60"/>
<path d="M20 81C20 64.4315 33.4315 51 50 51H63C79.5685 51 93 64.4315 93 81V100C93 102.209 91.2091 104 89 104H24C21.7909 104 20 102.209 20 100V81Z"/>
</mask>
<path d="M20 81C20 64.4315 33.4315 51 50 51H63C79.5685 51 93 64.4315 93 81V100C93 102.209 91.2091 104 89 104H24C21.7909 104 20 102.209 20 100V81Z" fill="#CDDAE0"/>
<path d="M13 81C13 60.5655 29.5655 44 50 44H63C83.4345 44 100 60.5655 100 81H86C86 68.2975 75.7025 58 63 58H50C37.2975 58 27 68.2975 27 81H13ZM93 104H20H93ZM24 104C17.9249 104 13 99.0751 13 93V81C13 60.5655 29.5655 44 50 44V58C37.2975 58 27 68.2975 27 81V100C27 102.209 27 104 27 104H24ZM63 44C83.4345 44 100 60.5655 100 81V93C100 99.0751 95.0751 104 89 104H86C86 104 86 102.209 86 100V81C86 68.2975 75.7025 58 63 58V44Z" fill="#263f49" mask="url(#path-3-outside-1_41_740)"/>
<rect x="37" y="4" width="40" height="40" rx="20" fill="#CDDAE0"/>
<rect x="3" width="27" height="27" rx="13.5" fill="#CDDAE0"/>
<rect x="83" width="27" height="27" rx="13.5" fill="#CDDAE0"/>
</svg>
