<svg width="113" height="113" viewBox="0 0 113 113" fill="none" xmlns="http://www.w3.org/2000/svg">
<circle cx="56.5" cy="56.5" r="56.5" fill="#cccccc"/>
<path d="M40 34.5C40 25.3873 47.3487 18 56.4138 18H57.5862C66.6513 18 74 25.3873 74 34.5V34.5C74 43.6127 66.6513 51 57.5862 51H56.4138C47.3487 51 40 43.6127 40 34.5V34.5Z" fill="white"/>
<path d="M98 84.2418C93.8333 91.4945 79.8 106 57 106V61H80.5C80.5 61 92.5 66.9341 98 84.2418Z" fill="white"/>
<path d="M15 84.2418C19.2683 91.4945 33.6439 106 57 106V61H32.9268C32.9268 61 20.6341 66.9341 15 84.2418Z" fill="white"/>
<path d="M33 61.0001C60 56 80.5 61.0001 80.5 61.0001H33Z" fill="white"/>
</svg>
