<svg width="113" height="113" viewBox="0 0 113 113" fill="none" xmlns="http://www.w3.org/2000/svg">
<circle cx="56.5" cy="56.5" r="56.5" fill="#cccccc"/>
<mask id="path-2-inside-1_83_887" fill="white">
<path d="M54 92.4995C50.134 92.4995 47 89.3655 47 85.4995V85.4995L68 85.4995V85.4995C68 89.3655 64.866 92.4995 61 92.4995L54 92.4995Z"/>
</mask>
<path d="M54 92.4995C50.134 92.4995 47 89.3655 47 85.4995V85.4995L68 85.4995V85.4995C68 89.3655 64.866 92.4995 61 92.4995L54 92.4995Z" fill="white"/>
<path d="M47 92.4995L68 92.4995L68 78.4995L47 78.4995L47 92.4995ZM61 85.4995L54 85.4995L54 99.4995L61 99.4995L61 85.4995ZM61 85.4995L61 85.4995L61 99.4995C68.732 99.4995 75 93.2315 75 85.4995L61 85.4995ZM40 85.4995C40 93.2315 46.268 99.4995 54 99.4995L54 85.4995L54 85.4995L40 85.4995Z" fill="white" mask="url(#path-2-inside-1_83_887)"/>
<path d="M78.6707 51.7058V72.088H35.425V51.7058C35.425 39.7639 45.1059 30.083 57.0479 30.083C68.9898 30.083 78.6707 39.7639 78.6707 51.7058Z" fill="white" stroke="white" stroke-width="7"/>
<mask id="path-5-inside-2_83_887" fill="white">
<path d="M49.2939 29.0641C49.2939 24.6104 52.9044 21 57.3581 21V21C61.8117 21 65.4222 24.6104 65.4222 29.0641V35.5387C65.4222 36.074 64.9882 36.5079 64.4529 36.5079H50.2632C49.7279 36.5079 49.2939 36.074 49.2939 35.5387V29.0641Z"/>
</mask>
<path d="M49.2939 29.0641C49.2939 24.6104 52.9044 21 57.3581 21V21C61.8117 21 65.4222 24.6104 65.4222 29.0641V35.5387C65.4222 36.074 64.9882 36.5079 64.4529 36.5079H50.2632C49.7279 36.5079 49.2939 36.074 49.2939 35.5387V29.0641Z" fill="white" stroke="white" stroke-width="14" mask="url(#path-5-inside-2_83_887)"/>
<path d="M26.9625 77.2268L87.1332 77.2268C87.9409 77.2268 88.5957 77.8816 88.5957 78.6893C88.5957 79.4971 87.9409 80.1519 87.1332 80.1519L26.9625 80.1519C26.1548 80.1519 25.5 79.4971 25.5 78.6893C25.5 77.8816 26.1548 77.2268 26.9625 77.2268Z" fill="white" stroke="white" stroke-width="4.96253"/>
<path d="M26.1512 74.1234C27.5401 73.3073 31.9251 70.1311 31.9251 62.561V74.347C30.2296 74.1861 27.256 73.975 26.1512 74.1234C25.8898 74.277 25.7346 74.347 25.7346 74.347C25.6736 74.2371 25.8367 74.1657 26.1512 74.1234Z" fill="white"/>
<path d="M87.9445 74.1234C86.5556 73.3073 82.1706 70.1311 82.1706 62.561V74.347C83.8661 74.1861 86.8397 73.975 87.9445 74.1234C88.2059 74.277 88.3611 74.347 88.3611 74.347C88.4221 74.2371 88.259 74.1657 87.9445 74.1234Z" fill="white"/>
</svg>
