<svg width="113" height="113" viewBox="0 0 113 113" fill="none" xmlns="http://www.w3.org/2000/svg">
<rect x="62" y="49.0215" width="12.0213" height="50.0887" rx="6.01064" transform="rotate(-90 62 49.0215)" fill="#CDDAE0"/>
<rect x="11" y="60" width="102" height="53" rx="7" fill="#CDDAE0"/>
<circle cx="87.5" cy="87.5" r="10.5" fill="#263F49"/>
<rect x="3.5" y="3.5" width="70" height="70" rx="35" fill="#CDDAE0" stroke="#263F49" stroke-width="7"/>
<path d="M27 28.459V29.6639" stroke="#263F49" stroke-width="7"/>
<path d="M49.9507 47.7378V48.9427" stroke="#263F49" stroke-width="7"/>
<rect x="35.2622" y="14" width="6.42623" height="49" fill="#263F49"/>
<path d="M49.951 28.4591C49.951 25.7815 47.5641 20.4263 38.0166 20.4263M49.951 28.4591C49.951 25.7815 47.5641 20.4263 38.0166 20.4263" stroke="#263F49" stroke-width="7"/>
<path d="M27.0002 28.4591C27.0002 25.7815 29.2035 20.4263 38.0166 20.4263M27.0002 28.4591C27.0002 25.7815 29.2035 20.4263 38.0166 20.4263" stroke="#263F49" stroke-width="7"/>
<path d="M49.951 48.5409C49.951 51.2185 47.5641 56.5737 38.0166 56.5737M49.951 48.5409C49.951 51.2185 47.5641 56.5737 38.0166 56.5737" stroke="#263F49" stroke-width="7"/>
<path d="M27.0002 48.5409C27.0002 51.2185 29.2035 56.5737 38.0166 56.5737M27.0002 48.5409C27.0002 51.2185 29.2035 56.5737 38.0166 56.5737" stroke="#263F49" stroke-width="7"/>
<path d="M27 29.6641C27 32.7433 29.2033 38.9018 38.0164 38.9018" stroke="#263F49" stroke-width="7"/>
<path d="M49.9507 48.1396C49.9507 45.0604 47.7474 38.9019 38.9343 38.9019" stroke="#263F49" stroke-width="7"/>
</svg>
