<svg width="26" height="26" viewBox="0 0 26 26" fill="none" xmlns="http://www.w3.org/2000/svg">
<path d="M16.9115 15.349H16.0885L15.7969 15.0677C16.8177 13.8802 17.4323 12.3385 17.4323 10.6615C17.4323 6.92188 14.401 3.89062 10.6615 3.89062C6.92188 3.89062 3.89062 6.92188 3.89062 10.6615C3.89062 14.401 6.92188 17.4323 10.6615 17.4323C12.3385 17.4323 13.8802 16.8177 15.0677 15.7969L15.349 16.0885V16.9115L20.5573 22.1094L22.1094 20.5573L16.9115 15.349ZM10.6615 15.349C8.06771 15.349 5.97396 13.2552 5.97396 10.6615C5.97396 8.06771 8.06771 5.97396 10.6615 5.97396C13.2552 5.97396 15.349 8.06771 15.349 10.6615C15.349 13.2552 13.2552 15.349 10.6615 15.349Z" fill="#606D80"/>
</svg>
