<svg width="113" height="113" viewBox="0 0 113 113" fill="none" xmlns="http://www.w3.org/2000/svg">
<path d="M0 92.9653C0 87.4425 4.47715 82.9653 10 82.9653H23C28.5228 82.9653 33 87.4425 33 92.9653V108.965C33 111.174 31.2091 112.965 29 112.965H6C2.68629 112.965 0 110.279 0 106.965V92.9653Z" fill="#CDDAE0"/>
<rect x="3" y="50.9653" width="27" height="27" rx="13.5" fill="#CDDAE0"/>
<path d="M40 92.9653C40 87.4425 44.4772 82.9653 50 82.9653H63C68.5228 82.9653 73 87.4425 73 92.9653V108.965C73 111.174 71.2091 112.965 69 112.965H46C42.6863 112.965 40 110.279 40 106.965V92.9653Z" fill="#CDDAE0"/>
<rect x="43" y="50.9653" width="27" height="27" rx="13.5" fill="#CDDAE0"/>
<path d="M80 92.9653C80 87.4425 84.4772 82.9653 90 82.9653H103C108.523 82.9653 113 87.4425 113 92.9653V108.965C113 111.174 111.209 112.965 109 112.965H86C82.6863 112.965 80 110.279 80 106.965V92.9653Z" fill="#CDDAE0"/>
<rect x="83" y="50.9653" width="27" height="27" rx="13.5" fill="#CDDAE0"/>
<path d="M43.2968 24.4508L55.6604 0.218212C55.7287 0.0842965 55.8664 0 56.0167 0H68.8435C69.1577 0 69.3492 0.34558 69.1827 0.611999L59.7303 15.7358C59.5638 16.0022 59.7554 16.3478 60.0695 16.3478H69.711C70.0537 16.3478 70.2377 16.7508 70.0132 17.0098L45.4701 45.3288C45.1784 45.6654 44.6376 45.3449 44.793 44.9273L51.9949 25.5721C52.0922 25.3108 51.8989 25.0326 51.62 25.0326H43.6531C43.3544 25.0326 43.161 24.717 43.2968 24.4508Z" fill="#CDDAE0"/>
</svg>
