<svg width="113" height="113" viewBox="0 0 113 113" fill="none" xmlns="http://www.w3.org/2000/svg">
<path d="M0 93C0 87.4772 4.47715 83 10 83H23C28.5228 83 33 87.4772 33 93V109C33 111.209 31.2091 113 29 113H6C2.68629 113 0 110.314 0 107V93Z" fill="#CDDAE0"/>
<rect x="3" y="51" width="27" height="27" rx="13.5" fill="#CDDAE0"/>
<path d="M40 93C40 87.4772 44.4772 83 50 83H63C68.5228 83 73 87.4772 73 93V109C73 111.209 71.2091 113 69 113H46C42.6863 113 40 110.314 40 107V93Z" fill="#CDDAE0"/>
<rect x="43" y="51" width="27" height="27" rx="13.5" fill="#CDDAE0"/>
<path d="M80 93C80 87.4772 84.4772 83 90 83H103C108.523 83 113 87.4772 113 93V109C113 111.209 111.209 113 109 113H86C82.6863 113 80 110.314 80 107V93Z" fill="#CDDAE0"/>
<rect x="83" y="51" width="27" height="27" rx="13.5" fill="#CDDAE0"/>
<path d="M54.5979 5.8541C55.1966 4.01148 57.8034 4.01148 58.4021 5.8541L62.0006 16.9291C62.2683 17.7531 63.0363 18.3111 63.9027 18.3111H75.5476C77.4851 18.3111 78.2906 20.7903 76.7232 21.9291L67.3023 28.7738C66.6013 29.2831 66.308 30.1858 66.5757 31.0099L70.1742 42.0848C70.7729 43.9275 68.6639 45.4597 67.0965 44.3209L57.6756 37.4762C56.9746 36.9669 56.0254 36.9669 55.3244 37.4762L45.9035 44.3209C44.3361 45.4597 42.2271 43.9275 42.8258 42.0848L46.4243 31.0099C46.692 30.1858 46.3987 29.2831 45.6977 28.7738L36.2768 21.9291C34.7094 20.7903 35.5149 18.3111 37.4524 18.3111H49.0973C49.9637 18.3111 50.7317 17.7531 50.9994 16.9291L54.5979 5.8541Z" fill="#CDDAE0"/>
</svg>
